<svg width="34" height="34" viewBox="0 0 34 34" fill="none" xmlns="http://www.w3.org/2000/svg">
<path d="M17.0332 3.54168C15.9317 3.54522 15.1681 3.64226 14.2452 3.80164C11.5195 4.27622 11.023 5.27284 11.023 7.10955V9.91668H17.398V11.3333H10.7807H7.69947C5.8323 11.3333 4.19818 12.2131 3.68038 14.3218C3.0953 16.7422 3.06909 18.258 3.68038 20.7853C4.14434 22.6702 5.16647 24.0833 7.03434 24.0833H9.60701V20.468C9.60701 18.3671 11.5096 16.2917 13.6898 16.2917H18.8153C20.6025 16.2917 22.357 14.9728 22.357 13.1913V7.10955C22.357 5.38193 21.111 4.08993 19.3693 3.80022C19.4125 3.79597 18.1254 3.53743 17.0332 3.54168ZM13.5028 6.37501C14.0844 6.37501 14.5653 6.85455 14.5653 7.43893C14.5653 8.02897 14.0844 8.50001 13.5028 8.50001C12.91 8.50001 12.4403 8.02968 12.4403 7.43893C12.4403 6.85668 12.91 6.37501 13.5028 6.37501Z" fill="#0277BD"/>
<path d="M16.347 30.4583C17.4485 30.4548 18.2121 30.3577 19.135 30.1983C21.8607 29.7237 22.3572 28.7271 22.3572 26.8904V24.0833H15.9822V22.6666H22.6002H25.6814C27.5486 22.6666 29.1827 21.7869 29.7005 19.6782C30.2856 17.2578 30.3118 15.742 29.7005 13.2146C29.2359 11.3298 28.2137 9.91663 26.3459 9.91663H23.7732V13.532C23.7732 15.6329 21.8706 17.7083 19.6904 17.7083H14.5649C12.7777 17.7083 11.0232 19.0272 11.0232 20.8087V26.8904C11.0232 28.618 12.2692 29.91 14.0109 30.1997C13.9677 30.204 15.2548 30.4625 16.347 30.4583ZM19.8781 27.625C19.2965 27.625 18.8156 27.1454 18.8156 26.561C18.8156 25.971 19.2965 25.5 19.8781 25.5C20.4709 25.5 20.9406 25.9703 20.9406 26.561C20.9406 27.1433 20.4702 27.625 19.8781 27.625Z" fill="#FFC107"/>
</svg>
