<svg width="38" height="38" viewBox="0 0 38 38" fill="none" xmlns="http://www.w3.org/2000/svg">
<path d="M32.4584 3.95837H5.54175L7.91675 30.875L19.0001 34.0417L30.0834 30.875L32.4584 3.95837Z" fill="#E65100"/>
<path d="M19 6.33337V31.5875L27.8667 29.0542L29.8458 6.33337H19Z" fill="#FF6D00"/>
<path d="M19 19.7916V16.625H25.8083L25.2542 25.7291L19 27.7875V24.4625L22.2458 23.3541L22.4833 19.7916H19ZM26.0458 13.4583L26.2833 10.2916H19V13.4583H26.0458Z" fill="white"/>
<path d="M19.0001 24.4625V27.7875L12.7459 25.7291L12.4292 21.375H15.5959L15.7542 23.3541L19.0001 24.4625ZM15.1209 13.4583H19.0001V10.2916H11.7959L12.3501 19.7916H19.0001V16.625H15.3584L15.1209 13.4583Z" fill="#EEEEEE"/>
</svg>
