<svg width="44" height="44" viewBox="0 0 44 44" fill="none" xmlns="http://www.w3.org/2000/svg">
<path d="M21.6793 22.8232C20.7644 21.3483 20.1008 20.1254 19.1813 17.8228C17.6267 13.9334 28.6368 10.4189 24.1726 3.66577C26.1077 8.33069 17.227 11.2145 16.402 15.0994C15.6476 18.6725 21.6747 22.8232 21.6793 22.8232Z" fill="#D43A02"/>
<path d="M21.8881 15.8309C21.7121 18.1372 23.9314 19.3665 23.9955 21.0513C24.0469 22.4226 22.6691 23.5657 22.6691 23.5657C22.6691 23.5657 25.1698 23.0744 25.9499 20.9825C26.8161 18.6597 24.2687 17.0693 24.5309 15.2094C24.7756 13.4329 30.0593 10.1283 30.0593 10.1283C30.0593 10.1283 22.285 10.6435 21.8881 15.8309Z" fill="#D43A02"/>
<path d="M29.4104 22.967C31.0182 22.6059 32.374 23.6298 32.374 24.8095C32.374 27.4688 28.6881 29.9823 28.6881 29.9823C28.6881 29.9823 34.3943 29.3021 34.3943 24.936C34.3943 22.0485 31.5921 21.3271 29.4104 22.967ZM26.7016 25.112C26.7016 25.112 28.4809 23.8443 28.9548 23.3685C24.5887 24.2953 14.62 24.4199 14.62 23.6151C14.62 22.8735 17.8347 22.1136 17.8347 22.1136C17.8347 22.1136 10.7095 22.0109 10.7095 24.1129C10.7095 26.3037 20.0366 26.4604 26.7016 25.112Z" fill="url(#paint0_linear_107_148)"/>
<path d="M25.607 27.1068C21.4737 28.4809 13.8608 28.0418 16.1158 26.1965C15.0176 26.1965 13.3896 27.0793 13.3896 27.9281C13.3896 29.6304 21.6231 30.9449 27.7171 28.4525L25.607 27.1068Z" fill="url(#paint1_linear_107_148)"/>
<path d="M17.1289 30.0107C15.6292 30.0107 14.6584 30.9769 14.6584 31.6809C14.6584 33.8727 23.6051 34.0936 27.1499 31.8688L24.8967 30.3728C22.2484 31.537 15.5962 31.6974 17.1289 30.0107Z" fill="url(#paint2_linear_107_148)"/>
<path d="M33.2576 33.5794C33.2576 32.7214 32.2905 32.3171 31.944 32.1237C33.9863 37.049 11.4867 36.6667 11.4867 33.759C11.4867 33.0981 13.1432 32.451 14.674 32.7571L13.3723 31.988C10.3217 31.5095 8.25 32.8506 8.25 33.9323C8.25 38.9767 33.2576 38.7338 33.2576 33.5794Z" fill="url(#paint3_linear_107_148)"/>
<path d="M35.75 35.387C31.9495 39.1407 22.3126 40.5084 12.6216 38.1892C22.3126 42.317 35.7042 39.9923 35.75 35.387Z" fill="url(#paint4_linear_107_148)"/>
<defs>
<linearGradient id="paint0_linear_107_148" x1="20.7873" y1="19.4094" x2="28.1756" y2="39.7081" gradientUnits="userSpaceOnUse">
<stop stop-color="#5C65D6"/>
<stop offset="0.999" stop-color="#464EB0"/>
</linearGradient>
<linearGradient id="paint1_linear_107_148" x1="17.8731" y1="20.8725" x2="25.0212" y2="40.513" gradientUnits="userSpaceOnUse">
<stop stop-color="#5C65D6"/>
<stop offset="0.999" stop-color="#464EB0"/>
</linearGradient>
<linearGradient id="paint2_linear_107_148" x1="17.1399" y1="21.5004" x2="24.3742" y2="41.3783" gradientUnits="userSpaceOnUse">
<stop stop-color="#5C65D6"/>
<stop offset="0.999" stop-color="#464EB0"/>
</linearGradient>
<linearGradient id="paint3_linear_107_148" x1="16.5275" y1="22.1815" x2="23.7059" y2="41.9027" gradientUnits="userSpaceOnUse">
<stop stop-color="#5C65D6"/>
<stop offset="0.999" stop-color="#464EB0"/>
</linearGradient>
<linearGradient id="paint4_linear_107_148" x1="18.9979" y1="22.5335" x2="25.8757" y2="41.4305" gradientUnits="userSpaceOnUse">
<stop stop-color="#5C65D6"/>
<stop offset="0.999" stop-color="#464EB0"/>
</linearGradient>
</defs>
</svg>
