<svg width="34" height="34" viewBox="0 0 34 34" fill="none" xmlns="http://www.w3.org/2000/svg">
<path d="M17 20.1875C18.7604 20.1875 20.1875 18.7604 20.1875 17C20.1875 15.2396 18.7604 13.8125 17 13.8125C15.2396 13.8125 13.8125 15.2396 13.8125 17C13.8125 18.7604 15.2396 20.1875 17 20.1875Z" fill="url(#paint0_linear_107_98)"/>
<path d="M30.8125 17C30.8125 15.0035 28.5584 13.2722 25.0468 12.223C25.1642 11.6752 25.2631 11.1366 25.3252 10.6212C25.6743 7.70841 25.0686 5.6684 23.6194 4.87684C22.1696 4.08581 20.1269 4.67922 17.8654 6.54815C17.5764 6.78669 17.2879 7.04647 17 7.31847C16.7121 7.04594 16.4236 6.78669 16.1346 6.54815C13.8731 4.67922 11.8293 4.08634 10.3806 4.87684C8.93138 5.66787 8.32575 7.70787 8.67478 10.6212C8.73641 11.1371 8.83575 11.6752 8.95316 12.223C5.44159 13.2722 3.1875 15.0035 3.1875 17C3.1875 18.9964 5.44159 20.7277 8.95316 21.777C8.83575 22.3247 8.73694 22.8634 8.67478 23.3787C8.32575 26.2915 8.93138 28.3315 10.3806 29.1231C10.7998 29.3521 11.2678 29.4647 11.7767 29.4647C13.0289 29.4647 14.527 28.781 16.1346 27.4523C16.4236 27.2138 16.7121 26.954 17 26.682C17.2879 26.9545 17.5764 27.2138 17.8654 27.4523C19.473 28.781 20.9711 29.4647 22.2233 29.4647C22.7322 29.4647 23.2008 29.3515 23.6194 29.1231C25.0686 28.3321 25.6743 26.2921 25.3252 23.3787C25.2636 22.8628 25.1642 22.3247 25.0468 21.777C28.5584 20.7277 30.8125 18.9964 30.8125 17ZM18.5417 7.36628C20.417 5.81662 22.0825 5.24819 23.1099 5.80919C24.1373 6.36965 24.5597 8.07762 24.2702 10.4937C24.2144 10.9607 24.1251 11.4479 24.021 11.9435C22.8963 11.6678 21.6676 11.4574 20.3596 11.3241C19.5288 10.1155 18.6517 9.01262 17.7523 8.06647C18.0147 7.8189 18.2782 7.58409 18.5417 7.36628ZM21.1963 19.2912C20.7432 20.1211 20.2613 20.9142 19.7609 21.6681C18.8838 21.7414 17.9621 21.7812 17 21.7812C16.0379 21.7812 15.1162 21.7414 14.2386 21.6681C13.7387 20.9137 13.2563 20.1211 12.8031 19.2912C12.3866 18.5289 12.0068 17.7623 11.6652 17C12.0068 16.2382 12.3866 15.4716 12.8031 14.7087C13.2563 13.8789 13.7381 13.0857 14.2386 12.3319C15.1162 12.2586 16.0379 12.2187 17 12.2187C17.9621 12.2187 18.8838 12.2586 19.7614 12.3319C20.2613 13.0862 20.7437 13.8789 21.1969 14.7087C21.6134 15.471 21.9932 16.2376 22.3348 17C21.9932 17.7618 21.6128 18.5284 21.1963 19.2912ZM22.8852 18.3212C23.2464 19.245 23.5429 20.1508 23.7756 21.0284C22.9553 21.2282 22.0702 21.3971 21.1145 21.522C21.4636 20.9642 21.8052 20.3936 22.1287 19.8002C22.398 19.3088 22.6467 18.8147 22.8852 18.3212ZM17 25.1828C16.3243 24.4704 15.6602 23.6618 15.019 22.7853C15.665 22.823 16.3253 22.8437 17 22.8437C17.6747 22.8437 18.335 22.823 18.981 22.7853C18.3398 23.6618 17.6757 24.4704 17 25.1828ZM12.8849 21.522C11.9292 21.3971 11.0442 21.2282 10.2239 21.0284C10.4566 20.1508 10.753 19.2445 11.1143 18.3212C11.3533 18.8152 11.602 19.3088 11.8702 19.8007C12.1943 20.3936 12.5359 20.9642 12.8849 21.522ZM11.1148 15.6787C10.7536 14.7549 10.4571 13.8486 10.2244 12.9715C11.0447 12.7717 11.9297 12.6028 12.8855 12.478C12.5364 13.0358 12.1948 13.6063 11.8713 14.1997C11.602 14.6912 11.3533 15.1852 11.1148 15.6787ZM17 8.81712C17.6757 9.52953 18.3398 10.3381 18.981 11.2147C18.335 11.1769 17.6747 11.1562 17 11.1562C16.3253 11.1562 15.665 11.1769 15.019 11.2147C15.6602 10.3381 16.3243 9.52953 17 8.81712ZM22.1292 14.1997C21.8057 13.6069 21.4641 13.0363 21.1151 12.478C22.0708 12.6028 22.9558 12.7717 23.7761 12.9715C23.5434 13.8491 23.247 14.7554 22.8857 15.6787C22.6467 15.1852 22.398 14.6912 22.1292 14.1997ZM9.72984 10.4943C9.43978 8.07762 9.86266 6.36965 10.8901 5.80972C11.1493 5.66787 11.4495 5.59881 11.7831 5.59881C12.7712 5.59881 14.0558 6.20815 15.4583 7.36681C15.7218 7.58462 15.9858 7.81944 16.2488 8.06753C15.3494 9.01369 14.4718 10.116 13.6414 11.3252C12.333 11.4585 11.1042 11.6694 9.98006 11.9446C9.87487 11.4484 9.78616 10.9612 9.72984 10.4943ZM4.25 17C4.25 15.6187 6.09344 14.1827 9.19966 13.2493C9.52159 14.4601 9.96306 15.7218 10.5124 17C9.96306 18.2787 9.52159 19.5404 9.19966 20.7506C6.09344 19.8172 4.25 18.3812 4.25 17ZM15.4583 26.6337C13.583 28.1833 11.9191 28.7528 10.8901 28.1907C9.86266 27.6303 9.44031 25.9223 9.72984 23.5062C9.78563 23.0392 9.87488 22.5521 9.979 22.0564C11.1037 22.3321 12.3324 22.5425 13.6404 22.6758C14.4713 23.8844 15.3483 24.9873 16.2477 25.9335C15.9853 26.181 15.7218 26.4158 15.4583 26.6337ZM24.2702 23.5057C24.5602 25.9223 24.1373 27.6303 23.1099 28.1902C22.0825 28.7528 20.4175 28.1828 18.5417 26.6331C18.2782 26.4153 18.0142 26.1805 17.7512 25.9324C18.6506 24.9862 19.5282 23.8839 20.3586 22.6748C21.667 22.5414 22.8958 22.3305 24.0199 22.0553C24.1251 22.5515 24.2138 23.0387 24.2702 23.5057ZM24.8003 20.7506C24.4784 19.5399 24.0369 18.2782 23.4876 17C24.0369 15.7212 24.4784 14.4595 24.8003 13.2493C27.9066 14.1827 29.75 15.6187 29.75 17C29.75 18.3812 27.9066 19.8172 24.8003 20.7506Z" fill="url(#paint1_linear_107_98)"/>
<defs>
<linearGradient id="paint0_linear_107_98" x1="17" y1="13.3944" x2="17" y2="19.5086" gradientUnits="userSpaceOnUse">
<stop stop-color="#6DC7FF"/>
<stop offset="1" stop-color="#E6ABFF"/>
</linearGradient>
<linearGradient id="paint1_linear_107_98" x1="17" y1="3.94503" x2="17" y2="28.39" gradientUnits="userSpaceOnUse">
<stop stop-color="#1A6DFF"/>
<stop offset="1" stop-color="#C822FF"/>
</linearGradient>
</defs>
</svg>
