<svg width="40" height="40" viewBox="0 0 40 40" fill="none" xmlns="http://www.w3.org/2000/svg">
<path d="M5.99338 5.97996L8.18254 30.7883C8.27338 31.8191 8.99088 32.6883 9.98588 32.9725L18.855 35.5066C19.6034 35.7208 20.3959 35.7208 21.1442 35.5066L30.0134 32.9725C31.0084 32.6883 31.7259 31.82 31.8167 30.7883L34.0059 5.97996C34.0925 5.00496 33.325 4.16663 32.3467 4.16663H7.65338C6.67504 4.16663 5.90754 5.00496 5.99338 5.97996Z" fill="url(#paint0_linear_107_86)"/>
<path d="M20 6.66663V33.25L28.23 30.8983C28.8942 30.7083 29.3725 30.1283 29.4325 29.4408L31.3375 7.57246C31.38 7.08496 30.9967 6.66663 30.5075 6.66663H20Z" fill="#35C1F1"/>
<path d="M27.5833 10.8334H20V14.1667H24.0833L23.8333 17.5H20V20.8334H23.6667L23.4167 24.5834L20 25.75V29.25L26.5833 27.0834L27.1667 17.5L27.5833 10.8334Z" fill="white"/>
<path d="M19.9999 10.8334V14.1667H12.5833L12.3333 10.8334H19.9999ZM16.1666 17.5L16.3333 20.8334H19.9999V17.5H16.1666ZM16.4999 22.5H13.1666L13.4166 27.0834L19.9999 29.25V25.75L16.5833 24.5834L16.4999 22.5Z" fill="#D6E0E9"/>
<path opacity="0.05" d="M27.5834 10.8333L27.1667 17.5L26.5834 27.0833L20.0001 29.25L13.4167 27.0833L13.1667 22.5H16.5001L16.5834 24.5833L20.0001 25.75L23.4167 24.5833L23.6667 20.8333H20.0001H16.3334L16.1667 17.5H20.0001H23.8334L24.0834 14.1667H20.0001H12.5834L12.3334 10.8333H20.0001H27.5834ZM28.4701 10H27.5834H20.0001H12.3334H11.4351L11.5026 10.8958L11.7526 14.2292L11.8101 15H12.5834H20.0001H23.1851L23.0601 16.6667H20.0001H16.1667H15.2909L15.3342 17.5417L15.5009 20.875L15.5409 21.6667H13.1667H12.2867L12.3351 22.545L12.5851 27.1283L12.6159 27.6967L13.1567 27.875L19.7401 30.0417L20.0001 30.1275L20.2609 30.0417L26.8442 27.875L27.3809 27.6983L27.4151 27.1342L27.9984 17.5508L28.4151 10.8858L28.4701 10ZM17.3009 21.6667H20.0001H22.7759L22.6217 23.9742L20.0001 24.8692L17.3934 23.9792L17.3326 22.4667L17.3009 21.6667Z" fill="black"/>
<path opacity="0.07" d="M27.5834 10.8333L27.1668 17.5L26.5834 27.0833L20.0001 29.25L13.4168 27.0833L13.1668 22.5H16.5001L16.5834 24.5833L20.0001 25.75L23.4168 24.5833L23.6668 20.8333H20.0001H16.3334L16.1668 17.5H20.0001H23.8334L24.0834 14.1666H20.0001H12.5834L12.3334 10.8333H20.0001H27.5834ZM28.0268 10.4166H27.5834H20.0001H12.3334H11.8843L11.9176 10.8641L12.1676 14.1975L12.1968 14.5833H12.5834H20.0001H23.6343L23.4468 17.0833H20.0001H16.1668H15.7284L15.7501 17.5208L15.9168 20.8541L15.9368 21.25H16.3334H20.0001H23.2218L23.0201 24.2783L20.0001 25.31L16.9884 24.2816L16.9168 22.4833L16.9001 22.0833H16.5001H13.1668H12.7268L12.7509 22.5225L13.0009 27.1058L13.0168 27.39L13.2868 27.4791L19.8701 29.6458L20.0001 29.6883L20.1301 29.6458L26.7134 27.4791L26.9818 27.3908L26.9993 27.1083L27.5826 17.525L27.9993 10.8591L28.0268 10.4166Z" fill="black"/>
<defs>
<linearGradient id="paint0_linear_107_86" x1="13.6084" y1="-2.29004" x2="26.9109" y2="34.2575" gradientUnits="userSpaceOnUse">
<stop stop-color="#2AA4F4"/>
<stop offset="1" stop-color="#007AD9"/>
</linearGradient>
</defs>
</svg>
