<svg width="27" height="27" viewBox="0 0 27 27" fill="none" xmlns="http://www.w3.org/2000/svg">
<path d="M13.4801 0.569514C13.3667 0.573422 13.2575 0.612905 13.1679 0.682365L0.747876 10.3739C0.634869 10.462 0.561493 10.5914 0.543889 10.7336C0.526286 10.8758 0.565897 11.0192 0.654009 11.1322C0.742121 11.2452 0.871516 11.3186 1.01373 11.3362C1.15594 11.3538 1.29932 11.3142 1.41233 11.2261L2.1601 10.6428V24.84C2.16012 24.9832 2.21701 25.1205 2.31828 25.2218C2.41955 25.3231 2.55689 25.38 2.7001 25.38H10.1694C10.2277 25.3896 10.2872 25.3896 10.3455 25.38H16.6494C16.7077 25.3896 16.7672 25.3896 16.8255 25.38H24.3001C24.4433 25.38 24.5807 25.3231 24.6819 25.2218C24.7832 25.1205 24.8401 24.9832 24.8401 24.84V10.6428L25.5879 11.2261C25.6438 11.2697 25.7078 11.3019 25.7762 11.3208C25.8446 11.3397 25.9161 11.3449 25.9865 11.3362C26.0569 11.3275 26.1249 11.305 26.1866 11.27C26.2484 11.235 26.3026 11.1882 26.3462 11.1322C26.3899 11.0763 26.422 11.0123 26.4409 10.9439C26.4598 10.8755 26.4651 10.804 26.4563 10.7336C26.4476 10.6632 26.4251 10.5952 26.3901 10.5335C26.3551 10.4717 26.3083 10.4175 26.2523 10.3739L22.1401 7.16553V3.23998H18.9001V4.63639L13.8323 0.682365C13.7319 0.604454 13.6071 0.564491 13.4801 0.569514ZM13.5001 1.79401L23.7601 9.80014V24.3H17.2801V14.04H9.7201V24.3H3.2401V9.80014L13.5001 1.79401ZM19.9801 4.31998H21.0601V6.32283L19.9801 5.47908V4.31998ZM10.8001 15.12H16.2001V24.3H10.8001V15.12Z" fill="black"/>
</svg>
