<svg width="37" height="37" viewBox="0 0 37 37" fill="none" xmlns="http://www.w3.org/2000/svg">
<path fill-rule="evenodd" clip-rule="evenodd" d="M6.16667 12.3334V22.0813C5.1299 22.2771 4.58569 22.3542 3.76012 22.3542C1.28729 22.3519 0 21.2481 0 19.129C0 17.0871 1.36515 15.762 3.48108 15.762C3.80946 15.762 4.05921 15.7875 4.36215 15.8653V12.3334H6.16667ZM4.36215 17.4764C4.12473 17.3993 3.92971 17.3731 3.67919 17.3731C2.65552 17.3731 2.06352 17.9967 2.06352 19.0905C2.06352 20.155 2.62931 20.7424 3.66608 20.7424C3.8904 20.7424 4.07231 20.7301 4.36215 20.6907V17.4764Z" fill="#004D40"/>
<path fill-rule="evenodd" clip-rule="evenodd" d="M9.25008 15.4521V20.5535C9.25008 22.1537 9.13061 23.0386 8.77833 23.7016C8.44996 24.339 8.01752 24.7414 7.12413 25.1854L5.24561 24.2997C6.139 23.8842 6.57221 23.5173 6.84817 22.9569C7.13723 22.3842 7.22896 21.6049 7.22896 19.8605V15.4506H9.25008V15.4521Z" fill="#004D40"/>
<path d="M9.24992 12.3334H7.22803V14.4246H9.24992V12.3334Z" fill="#004D40"/>
<path fill-rule="evenodd" clip-rule="evenodd" d="M10.5865 16.0919C11.4622 15.6664 12.3001 15.4791 13.2135 15.4791C14.2318 15.4791 14.9009 15.7589 15.1969 16.3062C15.3626 16.6123 15.4166 17.0108 15.4166 17.8641V22.032C14.5286 22.1638 13.4078 22.2586 12.5853 22.2586C10.9234 22.2586 10.178 21.6589 10.178 20.3277C10.178 18.8878 11.1685 18.2225 13.6012 18.0105V17.5596C13.6012 17.1873 13.4201 17.0524 12.9198 17.0524C12.1875 17.0524 11.3627 17.2667 10.5888 17.6783L10.5865 16.0919ZM13.6907 19.3533C12.3787 19.4851 11.9524 19.6994 11.9524 20.2329C11.9524 20.6321 12.1976 20.8195 12.7387 20.8195C13.0347 20.8195 13.3052 20.7933 13.6907 20.727V19.3533Z" fill="#004D40"/>
<path fill-rule="evenodd" clip-rule="evenodd" d="M16.5098 15.9509C17.6814 15.6264 18.6465 15.4784 19.6247 15.4784C20.6407 15.4784 21.3768 15.7227 21.8131 16.1953C22.2232 16.6408 22.3542 17.1295 22.3542 18.1709V22.2586H20.3701V18.2542C20.3701 17.454 20.1119 17.1565 19.405 17.1565C19.1345 17.1565 18.8893 17.1835 18.4908 17.3068V22.2594H16.5098V15.9509Z" fill="#004D40"/>
<path fill-rule="evenodd" clip-rule="evenodd" d="M23.2614 23.1296C23.9698 23.5042 24.679 23.6769 25.429 23.6769C26.7556 23.6769 27.3206 23.3123 27.3206 21.9996V21.9595C26.9275 22.1583 26.5305 22.2416 26.0071 22.2416C24.2327 22.2416 23.125 21.0491 23.125 19.1606C23.125 16.8149 24.7754 15.4899 27.73 15.4899C28.5979 15.4899 29.4004 15.5831 30.3716 15.7851L29.6786 17.2728C29.1398 17.1664 29.6347 17.2566 29.2285 17.2173V17.4324L29.2547 18.3034L29.2678 19.4296C29.2809 19.7117 29.2809 19.9923 29.294 20.2744V20.8371C29.294 22.6062 29.1475 23.2506 28.7151 23.9359C28.0845 24.9395 26.993 25.4367 25.4421 25.4367C24.6528 25.4367 23.9698 25.3172 23.2614 25.0351V23.1296ZM27.2813 17.1518H27.2158H27.0694C26.6762 17.1387 26.2153 17.2451 25.8992 17.447C25.4151 17.7284 25.1646 18.2387 25.1646 18.9609C25.1646 19.9915 25.6649 20.5812 26.5583 20.5812C26.8342 20.5812 27.0586 20.528 27.3191 20.4486V20.2999V19.7372C27.3191 19.4951 27.306 19.2269 27.306 18.9455L27.2929 17.9943L27.2798 17.3113V17.1518H27.2813Z" fill="#004D40"/>
<path fill-rule="evenodd" clip-rule="evenodd" d="M33.5821 15.4521C35.7042 15.4521 37 16.7317 37 18.8037C37 20.9281 35.6495 22.2594 33.4973 22.2594C31.3729 22.2594 30.0625 20.9806 30.0625 18.9217C30.0664 16.7841 31.4169 15.4521 33.5821 15.4521ZM33.5382 20.6214C34.353 20.6214 34.834 19.9754 34.834 18.8531C34.834 17.7438 34.3661 17.0848 33.5521 17.0848C32.7095 17.0848 32.2278 17.7307 32.2278 18.8531C32.2285 19.9754 32.7126 20.6214 33.5382 20.6214Z" fill="#004D40"/>
</svg>
