<svg width="39" height="39" viewBox="0 0 39 39" fill="none" xmlns="http://www.w3.org/2000/svg">
<path fill-rule="evenodd" clip-rule="evenodd" d="M18.6087 2.66992C19.1604 2.36035 19.8396 2.36035 20.3905 2.66992C23.1164 4.19985 31.3194 8.8051 34.0462 10.335C34.5979 10.6438 34.9375 11.2158 34.9375 11.8349C34.9375 14.8948 34.9375 24.1045 34.9375 27.1644C34.9375 27.7835 34.5979 28.3555 34.0462 28.665C31.3202 30.195 23.1172 34.8002 20.3905 36.3302C19.8388 36.6397 19.1596 36.6397 18.6087 36.3302C15.8827 34.8002 7.67975 30.195 4.953 28.665C4.40213 28.3555 4.0625 27.7843 4.0625 27.1652C4.0625 24.1053 4.0625 14.8956 4.0625 11.8357C4.0625 11.2166 4.40213 10.6446 4.95381 10.335C7.67894 8.8051 15.8836 4.19985 18.6087 2.66992Z" fill="#283593"/>
<path fill-rule="evenodd" clip-rule="evenodd" d="M4.3095 27.9532C4.09337 27.664 4.0625 27.3894 4.0625 27.0197C4.0625 23.9777 4.0625 14.8208 4.0625 11.778C4.0625 11.1621 4.40131 10.5934 4.95137 10.2862C7.66756 8.76523 15.8429 4.1868 18.5591 2.66498C19.1092 2.35705 19.8543 2.36355 20.4043 2.67148C23.1205 4.19248 31.2682 8.73192 33.9844 10.2529C34.2038 10.3764 34.3712 10.5251 34.5207 10.7209L4.3095 27.9532Z" fill="#5C6BC0"/>
<path fill-rule="evenodd" clip-rule="evenodd" d="M19.5 8.125C25.7782 8.125 30.875 13.2218 30.875 19.5C30.875 25.7782 25.7782 30.875 19.5 30.875C13.2218 30.875 8.125 25.7782 8.125 19.5C8.125 13.2218 13.2218 8.125 19.5 8.125ZM19.5 13.8125C22.6387 13.8125 25.1875 16.3605 25.1875 19.5C25.1875 22.6387 22.6387 25.1875 19.5 25.1875C16.3613 25.1875 13.8125 22.6387 13.8125 19.5C13.8125 16.3605 16.3605 13.8125 19.5 13.8125Z" fill="white"/>
<path fill-rule="evenodd" clip-rule="evenodd" d="M34.5192 10.729C34.9384 11.1214 34.9303 11.7129 34.9303 12.1785C34.9303 15.2619 34.9043 24.0321 34.9376 27.1155C34.9409 27.4373 34.8344 27.7761 34.6752 28.0312L19.1694 19.4999L34.5192 10.729Z" fill="#3949AB"/>
</svg>
