<svg width="36" height="36" viewBox="0 0 36 36" fill="none" xmlns="http://www.w3.org/2000/svg">
<path d="M31.5 27.75C31.5 29.8215 29.8215 31.5 27.75 31.5H8.25C6.17925 31.5 4.5 29.8215 4.5 27.75V8.25C4.5 6.1785 6.17925 4.5 8.25 4.5H27.75C29.8215 4.5 31.5 6.1785 31.5 8.25V27.75Z" fill="#673AB7"/>
<path d="M24.7725 19.2C24.285 18.525 23.58 18.06 22.6725 17.8125C22.6725 17.8125 23.4375 17.535 24.1275 16.5C24.54 15.84 24.75 15.045 24.75 14.115C24.75 12.5025 24.165 11.265 22.995 10.4175C21.825 9.57 20.505 9 18.2625 9H11.25V27H19.0725C21.195 26.985 22.7925 26.5275 23.88 25.65C24.96 24.7575 25.5 23.4375 25.5 21.675C25.5 20.7 25.26 19.875 24.7725 19.2ZM15.75 12C15.75 12 18.8775 12 18.9375 12C20.0775 12 21 12.9225 21 14.0625C21 15.2025 20.0775 16.125 18.9375 16.125C18.8775 16.125 15.75 16.125 15.75 16.125V12ZM19.5 24H15.75V19.5H19.5C20.745 19.5 21.75 20.505 21.75 21.75C21.75 22.995 20.745 24 19.5 24Z" fill="white"/>
</svg>
