<svg width="37" height="37" viewBox="0 0 37 37" fill="none" xmlns="http://www.w3.org/2000/svg">
<path d="M4.625 32.375V4.625H32.375V32.375H4.625Z" fill="#F7DF1E"/>
<path d="M22.7688 25.3967C23.3022 26.2631 23.8819 27.0933 25.1098 27.0933C26.1412 27.0933 26.6823 26.5807 26.6823 25.8715C26.6823 25.0228 26.1227 24.7214 24.988 24.2273L24.3659 23.9622C22.5707 23.2006 21.3767 22.2463 21.3767 20.2306C21.3767 18.3729 22.7988 16.9591 25.0212 16.9591C26.6037 16.9591 27.7407 17.5072 28.5608 18.9425L26.6229 20.1812C26.1967 19.4196 25.7357 19.1198 25.0212 19.1198C24.2919 19.1198 23.8302 19.58 23.8302 20.1812C23.8302 20.9243 24.2927 21.2249 25.3603 21.6851L25.9824 21.9503C28.0983 22.8514 29.2916 23.7718 29.2916 25.8407C29.2916 28.0699 27.531 29.2917 25.1676 29.2917C22.8559 29.2917 21.5432 28.1316 20.8124 26.6955L22.7688 25.3967ZM13.8379 25.4599C14.2279 26.1583 14.8207 26.6955 15.6733 26.6955C16.4888 26.6955 16.9582 26.3733 16.9582 25.1207V16.9584H19.5274V25.5154C19.5274 28.1108 18.022 29.2917 15.8236 29.2917C13.8371 29.2917 12.4034 27.9458 11.8191 26.6955L13.8379 25.4599Z" fill="#000001"/>
</svg>
